<svg xmlns="http://www.w3.org/2000/svg" version="1.1" xmlns:xlink="http://www.w3.org/1999/xlink" id="Layer_1" viewBox="113 92 837 824" xml:space="preserve" width="837" height="824"><path fill="#0ea5e9" opacity="1.000000" stroke="none" d="
M563.747925,893.038086 
	C545.952332,895.377747 528.531311,896.548645 511.015015,896.252197 
	C467.751831,895.520020 426.102875,886.777588 385.866669,871.057861 
	C334.237152,850.886902 288.732330,821.193909 249.723724,781.893066 
	C193.930252,725.681458 157.687607,658.811218 141.698883,581.055176 
	C135.527084,551.040588 132.599319,520.754272 133.914276,490.199860 
	C136.588989,428.049957 152.066330,369.267212 181.746918,314.398804 
	C200.907440,278.978088 224.312866,246.747192 253.506226,218.883698 
	C303.040466,171.605911 360.781189,139.277832 427.642700,123.701965 
	C449.739563,118.554352 472.120972,115.564331 494.824097,114.619881 
	C553.178406,112.192345 608.913696,123.287277 661.803162,147.690796 
	C720.657043,174.846390 770.003967,213.627838 805.153198,268.974457 
	C811.052612,278.263947 816.236206,287.958527 820.628845,298.057739 
	C821.511047,300.085968 823.513062,302.418701 820.867737,304.314392 
	C818.378113,306.098541 816.976685,303.363037 815.473145,302.092133 
	C784.332092,275.768860 751.632568,251.747360 714.745544,233.933914 
	C679.235962,216.785660 642.129761,204.635574 602.808960,200.533447 
	C555.566467,195.604889 509.485168,201.048035 464.718933,217.505905 
	C419.473969,234.139725 380.160614,259.781860 347.265076,294.831909 
	C307.591553,337.103882 282.045593,386.960480 270.030762,443.736542 
	C265.495972,465.165680 262.711731,486.827026 263.499146,508.682129 
	C267.571838,621.725464 316.684753,708.992493 413.684601,768.232300 
	C447.079773,788.627441 483.639343,800.987000 522.317078,806.446350 
	C569.258179,813.072021 615.249939,808.319031 660.304565,793.436768 
	C713.423157,775.890930 758.645752,745.764709 798.952454,707.614685 
	C804.518311,702.346558 810.004456,696.994202 815.580322,691.736755 
	C816.953674,690.441772 818.341736,688.116638 820.557678,689.733704 
	C822.610352,691.231384 821.236572,693.386536 820.512268,695.199524 
	C810.235596,720.919617 795.856750,744.281250 779.241394,766.304321 
	C746.849670,809.238525 706.817749,842.941101 657.831299,865.542358 
	C628.930542,878.876587 598.534851,887.406555 567.130554,892.414062 
	C566.144470,892.571350 565.166504,892.779785 563.747925,893.038086 
z"></path><path fill="#0ea5e9" opacity="1.000000" stroke="none" d="
M405.972504,617.004089 
	C383.172485,590.039490 369.572510,559.371887 365.952911,524.596008 
	C357.379944,442.229950 412.415131,359.824707 501.891357,344.792877 
	C550.135864,336.687897 592.600464,350.658173 629.376404,382.039459 
	C663.444275,411.109985 682.029297,448.783569 685.937012,493.081573 
	C690.054260,539.755066 676.221252,581.281555 645.734802,616.973145 
	C621.505859,645.338745 590.816162,663.122864 554.305969,670.325500 
	C514.928406,678.093628 478.248047,670.207336 444.097809,649.534912 
	C429.715668,640.828918 417.187378,629.962830 405.972504,617.004089 
z"></path><path fill="#0ea5e9" opacity="1.000000" stroke="none" d="
M803.399658,520.420776 
	C787.029358,480.234314 815.799438,431.484802 864.156799,431.941437 
	C896.450928,432.246399 923.422302,458.334320 926.449890,490.962402 
	C929.921692,528.377319 900.148682,561.125427 861.802734,561.101929 
	C836.900391,561.086670 813.388977,544.633850 803.399658,520.420776 
z"></path></svg>